<svg xmlns="http://www.w3.org/2000/svg" direction="ltr" width="232" height="232" viewBox="-13667.153956843113 -1680.9104722390748 232 232" stroke-linecap="round" stroke-linejoin="round" data-color-mode="dark" class="tl-container tl-theme__force-sRGB tl-theme__dark" style="background-color: transparent;"><defs/><g transform="matrix(1, 0, 0, 1, -13651.154, -1664.9105)" opacity="1"><path stroke-width="3.5" d="M 0.3172 99.6822 C 0.5002 44.0796 45.2717 -0.6919 100.5002 -0.6919 C 155.1022 0.3323 199.8737 45.1038 199.8737 100.3323 C 200.2485 155.2353 155.477 200.0069 100.2485 200.0069 C 45.0887 199.6822 0.3172 154.9107 0.3172 99.6822 M 0.9944 99.762 C 0.3284 43.7642 45.0999 -1.0073 100.3284 -1.0073 C 155.7268 -0.5025 200.4984 44.269 200.4984 99.4975 C 199.6424 154.2723 154.8709 199.0438 99.6424 199.0438 C 45.7659 199.762 0.9944 154.9905 0.9944 99.762" fill="none" stroke="#f2f2f2"/></g></svg>