<svg xmlns="http://www.w3.org/2000/svg" direction="ltr" width="232" height="232" viewBox="-22065.251531676273 -2972.859236354385 232 232" stroke-linecap="round" stroke-linejoin="round" data-color-mode="dark" class="tl-container tl-theme__force-sRGB tl-theme__dark" style="background-color: transparent;"><defs/><g transform="matrix(1, 0, 0, 1, -22049.2515, -2956.8592)" opacity="1"><path stroke-width="3.5" d="M 0.8213 99.9496 C -0.9066 44.928 43.8649 0.1565 99.0934 0.1565 C 154.2847 -0.3341 199.0563 44.4374 199.0563 99.6659 C 200.0605 155.8257 155.289 200.5972 100.0605 200.5972 C 45.5928 199.9496 0.8213 155.178 0.8213 99.9496 M 0.1988 99.4413 C -1.0351 45.2479 43.7364 0.4764 98.9649 0.4764 C 156.076 0.5104 200.8475 45.2819 200.8475 100.5104 C 199.4635 154.849 154.6919 199.6206 99.4635 199.6206 C 44.9703 199.4413 0.1988 154.6698 0.1988 99.4413" fill="none" stroke="#f2f2f2"/></g></svg>