<svg xmlns="http://www.w3.org/2000/svg" direction="ltr" width="232" height="232" viewBox="-1323.0010301913392 109.01000382579184 232 232" stroke-linecap="round" stroke-linejoin="round" data-color-mode="dark" class="tl-container tl-theme__force-sRGB tl-theme__dark" style="background-color: transparent;"><defs/><g transform="matrix(1, 0, 0, 1, -1307.001, 125.01)" opacity="1"><path stroke-width="3.5" d="M -0.1278 99.0053 C -0.72 43.7397 44.0516 -1.0318 99.28 -1.0318 C 154.4326 -0.5524 199.2041 44.2192 199.2041 99.4476 C 200.8783 154.1608 156.1067 198.9323 100.8783 198.9323 C 44.6437 199.0053 -0.1278 154.2338 -0.1278 99.0053 M -0.5999 99.2172 C -0.8395 44.0026 43.9321 -0.7689 99.1605 -0.7689 C 156.2142 0.4357 200.9857 45.2072 200.9857 100.4357 C 199.1602 155.493 154.3887 200.2645 99.1602 200.2645 C 44.1716 199.2172 -0.5999 154.4457 -0.5999 99.2172" fill="none" stroke="#f2f2f2"/></g></svg>