<svg xmlns="http://www.w3.org/2000/svg" direction="ltr" width="232" height="232" viewBox="-30463.349106509435 -4264.808000469695 232 232" stroke-linecap="round" stroke-linejoin="round" data-color-mode="dark" class="tl-container tl-theme__force-sRGB tl-theme__dark" style="background-color: transparent;"><defs/><g transform="matrix(1, 0, 0, 1, -30447.3491, -4248.808)" opacity="1"><path stroke-width="3.5" d="M -0.4132 99.0108 C 0.7784 44.5042 45.5499 -0.2673 100.7784 -0.2673 C 156.1455 0.502 200.9171 45.2735 200.9171 100.502 C 200.8065 154.9147 156.035 199.6862 100.8065 199.6862 C 44.3583 199.0108 -0.4132 154.2393 -0.4132 99.0108 M -0.8978 99.2319 C 0.6517 44.2589 45.4233 -0.5126 100.6517 -0.5126 C 154.3542 -0.3306 199.1258 44.441 199.1258 99.6694 C 199.0885 155.9057 154.3169 200.6772 99.0885 200.6772 C 43.8737 199.2319 -0.8978 154.4604 -0.8978 99.2319" fill="none" stroke="#f2f2f2"/></g></svg>